<svg viewBox="0 0 24 24"><path d="M12,2h4.1a7,7,0,0,1,2.4.4,4.4,4.4,0,0,1,1.8,1.2,6.6,6.6,0,0,1,1.2,1.7,8.2,8.2,0,0,1,.4,2.5A35.9,35.9,0,0,1,22,12a35.9,35.9,0,0,1-.1,4.1,7,7,0,0,1-.4,2.4,5.5,5.5,0,0,1-3,3,7,7,0,0,1-2.4.4H7.9a8.2,8.2,0,0,1-2.5-.4,6.6,6.6,0,0,1-1.7-1.2,5.7,5.7,0,0,1-1.2-1.8,7,7,0,0,1-.4-2.4A35.9,35.9,0,0,1,2,12a35.9,35.9,0,0,1,.1-4.1,8.2,8.2,0,0,1,.4-2.5A6.6,6.6,0,0,1,3.7,3.7,6.6,6.6,0,0,1,5.4,2.5a8.2,8.2,0,0,1,2.5-.4Zm0,5a5,5,0,1,0,5,5A5,5,0,0,0,12,7Zm6.5-.2a1.3,1.3,0,0,0-1.3-1.3A1.3,1.3,0,0,0,16,6.8,1.3,1.3,0,0,0,17.2,8,1.3,1.3,0,0,0,18.5,6.8ZM12,9a3,3,0,1,1-3,3A2.9,2.9,0,0,1,12,9Z"/></svg>
