<svg xmlns="http://www.w3.org/2000/svg" viewBox="0 0 24 24"><path d="M19.03,4.823,19.923,6.2a7.428,7.428,0,0,0-4.247,5.621,3.365,3.365,0,0,1,1.523-.33c.135,0,.271.006.406.019a3.5,3.5,0,0,1-.274,6.989,3.871,3.871,0,0,1-2.748-1.179A5.717,5.717,0,0,1,13,13.011c0-3.5,2.457-6.637,6.03-8.188m-10,0L9.923,6.2a7.428,7.428,0,0,0-4.247,5.621,3.365,3.365,0,0,1,1.523-.33c.135,0,.271.006.406.019A3.5,3.5,0,0,1,7.331,18.5a3.871,3.871,0,0,1-2.748-1.179A5.717,5.717,0,0,1,3,13.011c0-3.5,2.457-6.637,6.03-8.188m10.1-.314-.2.085c-3.754,1.629-6.18,4.933-6.18,8.417A5.991,5.991,0,0,0,14.4,17.492a4.149,4.149,0,0,0,2.93,1.258,3.75,3.75,0,0,0,.3-7.488c-.143-.013-.286-.02-.429-.02a3.928,3.928,0,0,0-1.188.173,7.2,7.2,0,0,1,4.031-4.994l.238-.129-.147-.227L19.24,4.687l-.115-.178Zm-10,0-.2.085C5.176,6.223,2.75,9.527,2.75,13.011A5.991,5.991,0,0,0,4.4,17.492a4.149,4.149,0,0,0,2.93,1.258,3.75,3.75,0,0,0,.3-7.488c-.143-.013-.286-.02-.429-.02a3.928,3.928,0,0,0-1.188.173,7.2,7.2,0,0,1,4.031-4.994l.238-.129-.147-.227L9.24,4.687l-.115-.178Z"/></svg>
